<svg height="774" width="585">
<text x="401.06293" y="287.4671" fill="black">string theory</text>
<text x="238.68098" y="386.1683" fill="black">black hole</text>
<text x="341.28998" y="493.11115" fill="black">physical cosmology</text>
<text x="309.17398" y="210.7362" fill="black">gravitation</text>
<text x="386.90973" y="303.4861" fill="black">spacetime</text>
<text x="394.04202" y="492.16003" fill="black">dark matter</text>
<text x="416.45294" y="373.76218" fill="black">special relativity</text>
<text x="281.74698" y="303.43622" fill="black">quantum gravity</text>
<text x="340.49683" y="451.87238" fill="black">time</text>
<text x="294.02402" y="504.42957" fill="black">big bang</text>
<text x="232.9983" y="480.41364" fill="black">gravitational wave</text>
<text x="308.62335" y="312.88388" fill="black">symmetry</text>
<text x="293.11624" y="412.9167" fill="black">hawking radiation</text>
<text x="197.69087" y="334.7305" fill="black">standard model</text>
<text x="255.23541" y="393.2292" fill="black">neutron star</text>
<text x="316.88794" y="508.63455" fill="black">dark energy</text>
<text x="121.35471" y="129.30481" fill="black">schwarzschild radius</text>
<text x="259.85553" y="451.25397" fill="black">cosmological constant</text>
<text x="237.94255" y="430.57712" fill="black">white dwarf</text>
<text x="211.45192" y="241.17505" fill="black">euclidean space</text>
<text x="249.8885" y="154.70667" fill="black">event horizon</text>
<text x="218.36493" y="421.49237" fill="black">supernova</text>
<text x="44.92107" y="550.5888" fill="black">schwarzschild metric</text>
<text x="309.58826" y="534.2481" fill="black">cosmic microwave background radiation</text>
<text x="333.2801" y="388.27905" fill="black">noether's theorem</text>
<text x="118.69297" y="636.3241" fill="black">black hole thermodynamics</text>
<text x="-11.048536" y="287.03973" fill="black">black holes</text>
<text x="257.07684" y="248.35034" fill="black">hilbert space</text>
<text x="320.4423" y="120.118164" fill="black">gravitational singularity</text>
<text x="366.68402" y="342.12915" fill="black">de sitter space</text>
<text x="238.855" y="300.00006" fill="black">loop quantum gravity</text>
<text x="18.791258" y="217.08759" fill="black">frame-dragging</text>
<text x="343.13373" y="526.80725" fill="black">hubble's law</text>
<text x="364.87802" y="400.39944" fill="black">cosmology</text>
<text x="430.18668" y="472.2015" fill="black">multiverse</text>
<text x="409.63776" y="394.6124" fill="black">minkowski space</text>
<text x="431.10953" y="249.41986" fill="black">supersymmetry</text>
<text x="240.32314" y="441.31573" fill="black">binary star</text>
<text x="614.8568" y="273.53214" fill="black">kerr metric</text>
<text x="198.77867" y="500.94012" fill="black">vacuum energy</text>
<text x="395.1364" y="536.25446" fill="black">accelerating universe</text>
<text x="367.44214" y="423.44266" fill="black">cosmic inflation</text>
<text x="428.2591" y="326.07443" fill="black">de sitter universe</text>
<text x="270.23654" y="211.86652" fill="black">riemannian manifold</text>
<text x="344.3792" y="252.14178" fill="black">wormhole</text>
<text x="392.96" y="513.0717" fill="black">lambda-cdm model</text>
<text x="298.08508" y="387.59406" fill="black">pulsar</text>
<text x="123.335304" y="452.58154" fill="black">accretion disc</text>
<text x="328.6159" y="283.05844" fill="black">exotic matter</text>
<text x="364.76953" y="317.81516" fill="black">theory of everything</text>
<text x="466.6629" y="238.47052" fill="black">gravitational constant</text>
<text x="225.1114" y="170.36053" fill="black">equivalence principle</text>
<text x="168.28075" y="383.2535" fill="black">black hole information paradox</text>
<text x="627.6418" y="337.15955" fill="black">closed timelike curve</text>
<text x="342.87714" y="280.04303" fill="black">time travel</text>
<text x="453.32352" y="261.71558" fill="black">m-theory</text>
<text x="201.23683" y="200.18848" fill="black">non-euclidean geometry</text>
</svg>
