<?xml version="1.0" encoding="utf-8"?>
<!-- Generator: Adobe Illustrator 16.0.4, SVG Export Plug-In . SVG Version: 6.00 Build 0)  -->
<!DOCTYPE svg PUBLIC "-//W3C//DTD SVG 1.1//EN" "http://www.w3.org/Graphics/SVG/1.1/DTD/svg11.dtd">
<svg version="1.1" xmlns="http://www.w3.org/2000/svg" xmlns:xlink="http://www.w3.org/1999/xlink" x="0px" y="0px" width="585px"
	 height="774px" viewBox="0 0 585 774" enable-background="new 0 0 585 774" xml:space="preserve">
<g id="Layer_3">
	<rect width="584" height="774"/>
</g>
<g id="Layer_1">
	<text transform="matrix(1 0 0 1 231.6177 311.2168)" fill="#E9E9E9" font-family="'Georgia-Bold'" font-size="9">string theory</text>
	<text transform="matrix(1 0 0 1 363.0664 234.0918)" fill="#E9E9E9" font-family="'Georgia-Bold'" font-size="9">black hole</text>
	<text transform="matrix(1 0 0 1 183.5913 355.0986)" fill="#E9E9E9" font-family="'Georgia-Bold'" font-size="9">physical cosmology</text>
	<text transform="matrix(1 0 0 1 358.9043 441.5322)" fill="#E9E9E9" font-family="'Georgia-Bold'" font-size="9">gravitation</text>
	<text transform="matrix(1 0 0 1 236.9722 482.7549)" fill="#E9E9E9" font-family="'Georgia-Bold'" font-size="9">spacetime</text>
	<text transform="matrix(1 0 0 1 133.5552 488.0742)" fill="#E9E9E9" font-family="'Georgia-Bold'" font-size="9">dark matter</text>
	<text transform="matrix(1 0 0 1 172.7017 537.2744)" fill="#E9E9E9" font-family="'Georgia-Bold'" font-size="9">special relativity</text>
	<text transform="matrix(1 0 0 1 337.7168 567.8594)" fill="#E9E9E9" font-family="'Georgia-Bold'" font-size="9">quantum gravity</text>
	<text transform="matrix(1 0 0 1 205.4619 558.5508)" fill="#E9E9E9" font-family="'Georgia-Bold'" font-size="9">time</text>
	<text transform="matrix(1 0 0 1 223.0659 597.1133)" fill="#E9E9E9" font-family="'Georgia-Bold'" font-size="9">big bang</text>
	<text transform="matrix(1 0 0 1 293.8076 615.7305)" fill="#E9E9E9" font-family="'Georgia-Bold'" font-size="9">gravitational wave</text>
	<text transform="matrix(1 0 0 1 307.1396 640.9951)" fill="#E9E9E9" font-family="'Georgia-Bold'" font-size="9">symmetry</text>
	<text transform="matrix(1 0 0 1 270.7827 627.6982)" fill="#E9E9E9" font-family="'Georgia-Bold'" font-size="9">hawking radiation</text>
	<text transform="matrix(1 0 0 1 402.2012 637.0059)" fill="#E9E9E9" font-family="'Georgia-Bold'" font-size="9">standard model</text>
	<text transform="matrix(1 0 0 1 317.1416 670.25)" fill="#E9E9E9" font-family="'Georgia-Bold'" font-size="9">neutron star</text>
	<text transform="matrix(1 0 0 1 199.0156 650.3037)" fill="#E9E9E9" font-family="'Georgia-Bold'" font-size="9">dark energy</text>
	<text transform="matrix(1 0 0 1 521.2588 630.3574)" fill="#E9E9E9" font-family="'Georgia-Bold'" font-size="9">schwarzschild radius</text>
	<text transform="matrix(1 0 0 1 283.0127 668.9199)" fill="#E9E9E9" font-family="'Georgia-Bold'" font-size="9">cosmological constant</text>
	<text transform="matrix(1 0 0 1 310.0889 674.2393)" fill="#E9E9E9" font-family="'Georgia-Bold'" font-size="9">white dwarf</text>
	<text transform="matrix(1 0 0 1 436.9141 678.2285)" fill="#E9E9E9" font-family="'Georgia-Bold'" font-size="9">euclidean space</text>
	<text transform="matrix(1 0 0 1 444.3672 671.5791)" fill="#E9E9E9" font-family="'Georgia-Bold'" font-size="9">event horizon</text>
	<text transform="matrix(1 0 0 1 337.9854 687.5371)" fill="#E9E9E9" font-family="'Georgia-Bold'" font-size="9">supernova</text>
	<text transform="matrix(1 0 0 1 482.7891 672.9092)" fill="#E9E9E9" font-family="'Georgia-Bold'" font-size="9">schwarzschild metric</text>
	<text transform="matrix(1 0 0 1 192.8945 710.1426)" fill="#E9E9E9" font-family="'Georgia-Bold'" font-size="9">cosmic microwave background radiation</text>
	<text transform="matrix(1 0 0 1 244.9287 699.5039)" fill="#E9E9E9" font-family="'Georgia-Bold'" font-size="9">noether&apos;s theorem</text>
	<text transform="matrix(1 0 0 1 366.4824 695.5156)" fill="#E9E9E9" font-family="'Georgia-Bold'" font-size="9">black hole thermodynamics</text>
	<text transform="matrix(1 0 0 1 398.6709 694.1855)" fill="#E9E9E9" font-family="'Georgia-Bold'" font-size="9">black holes</text>
	<text transform="matrix(1 0 0 1 389.5439 703.4932)" fill="#E9E9E9" font-family="'Georgia-Bold'" font-size="9">hilbert space</text>
	<text transform="matrix(1 0 0 1 302.5391 696.8447)" fill="#E9E9E9" font-family="'Georgia-Bold'" font-size="9">gravitational singularity</text>
	<text transform="matrix(1 0 0 1 236.561 719.4502)" fill="#E9E9E9" font-family="'Georgia-Bold'" font-size="9">de sitter space</text>
	<text transform="matrix(1 0 0 1 380.5557 715.4609)" fill="#E9E9E9" font-family="'Georgia-Bold'" font-size="9">loop quantum gravity</text>
	<text transform="matrix(1 0 0 1 518.4531 704.8232)" fill="#E9E9E9" font-family="'Georgia-Bold'" font-size="9">frame-dragging</text>
	<text transform="matrix(1 0 0 1 164.5757 718.1211)" fill="#E9E9E9" font-family="'Georgia-Bold'" font-size="9">hubble&apos;s law</text>
	<text transform="matrix(1 0 0 1 208.4609 718.1211)" fill="#E9E9E9" font-family="'Georgia-Bold'" font-size="9">cosmology</text>
	<text transform="matrix(1 0 0 1 109.1553 726.0996)" fill="#E9E9E9" font-family="'Georgia-Bold'" font-size="9">multiverse</text>
	<text transform="matrix(1 0 0 1 168.5552 730.0889)" fill="#E9E9E9" font-family="'Georgia-Bold'" font-size="9">minkowski space</text>
	<text transform="matrix(1 0 0 1 222.3179 731.418)" fill="#E9E9E9" font-family="'Georgia-Bold'" font-size="9">supersymmetry</text>
	<text transform="matrix(1 0 0 1 313.8965 724.7695)" fill="#E9E9E9" font-family="'Georgia-Bold'" font-size="9">binary star</text>
	<text transform="matrix(1 0 0 1 108.1655 727.4287)" fill="#E9E9E9" font-family="'Georgia-Bold'" font-size="9">kerr metric</text>
	<text transform="matrix(1 0 0 1 316.0732 735.4072)" fill="#E9E9E9" font-family="'Georgia-Bold'" font-size="9">vacuum energy</text>
	<text transform="matrix(1 0 0 1 109.9341 734.0781)" fill="#E9E9E9" font-family="'Georgia-Bold'" font-size="9">accelerating universe</text>
	<text transform="matrix(1 0 0 1 194.209 739.3965)" fill="#E9E9E9" font-family="'Georgia-Bold'" font-size="9">cosmic inflation</text>
	<text transform="matrix(1 0 0 1 185.8066 739.3965)" fill="#E9E9E9" font-family="'Georgia-Bold'" font-size="9">de sitter universe</text>
	<text transform="matrix(1 0 0 1 395.6172 740.7266)" fill="#E9E9E9" font-family="'Georgia-Bold'" font-size="9">riemannian manifold</text>
	<text transform="matrix(1 0 0 1 303.9902 736.7373)" fill="#E9E9E9" font-family="'Georgia-Bold'" font-size="9">wormhole</text>
	<text transform="matrix(1 0 0 1 123.8867 738.0674)" fill="#E9E9E9" font-family="'Georgia-Bold'" font-size="9">lambda-cdm model</text>
	<text transform="matrix(1 0 0 1 278.9873 740.7266)" fill="#E9E9E9" font-family="'Georgia-Bold'" font-size="9">pulsar</text>
	<text transform="matrix(1 0 0 1 413.084 738.0674)" fill="#E9E9E9" font-family="'Georgia-Bold'" font-size="9">accretion disc</text>
	<text transform="matrix(1 0 0 1 303.2598 740.7266)" fill="#E9E9E9" font-family="'Georgia-Bold'" font-size="9">exotic matter</text>
	<text transform="matrix(1 0 0 1 250.8418 736.7373)" fill="#E9E9E9" font-family="'Georgia-Bold'" font-size="9">theory of everything</text>
	<text transform="matrix(1 0 0 1 193.8716 746.0459)" fill="#E9E9E9" font-family="'Georgia-Bold'" font-size="9">gravitational constant</text>
	<text transform="matrix(1 0 0 1 460.084 742.0566)" fill="#E9E9E9" font-family="'Georgia-Bold'" font-size="9">equivalence principle</text>
	<text transform="matrix(1 0 0 1 405.5293 744.7158)" fill="#E9E9E9" font-family="'Georgia-Bold'" font-size="9">black hole information paradox</text>
	<text transform="matrix(1 0 0 1 125.2344 746.0459)" fill="#E9E9E9" font-family="'Georgia-Bold'" font-size="9">closed timelike curve</text>
	<text transform="matrix(1 0 0 1 291.145 744.7158)" fill="#E9E9E9" font-family="'Georgia-Bold'" font-size="9">time travel</text>
	<text transform="matrix(1 0 0 1 194.748 746.0459)" fill="#E9E9E9" font-family="'Georgia-Bold'" font-size="9">m-theory</text>
	<text transform="matrix(1 0 0 1 467.6797 744.7158)" fill="#E9E9E9" font-family="'Georgia-Bold'" font-size="9">non-euclidean geometry</text>
</g>
<g id="Layer_2" display="none">
	<g display="inline">
		<defs>
			<rect id="SVGID_1_" width="584" height="774"/>
		</defs>
		<clipPath id="SVGID_2_">
			<use xlink:href="#SVGID_1_"  overflow="visible"/>
		</clipPath>
		
			<line opacity="0.5882" clip-path="url(#SVGID_2_)" fill="none" stroke="#AAABAB" stroke-width="0.2586" stroke-linecap="round" stroke-miterlimit="10" x1="230.62" y1="311.22" x2="230.62" y2="751.36"/>
		
			<line opacity="0.5882" clip-path="url(#SVGID_2_)" fill="none" stroke="#AAABAB" stroke-width="0.2586" stroke-linecap="round" stroke-miterlimit="10" x1="362.07" y1="234.09" x2="362.07" y2="751.36"/>
		
			<line opacity="0.5882" clip-path="url(#SVGID_2_)" fill="none" stroke="#AAABAB" stroke-width="0.2586" stroke-linecap="round" stroke-miterlimit="10" x1="182.59" y1="355.1" x2="182.59" y2="751.36"/>
		
			<line opacity="0.5882" clip-path="url(#SVGID_2_)" fill="none" stroke="#AAABAB" stroke-width="0.2586" stroke-linecap="round" stroke-miterlimit="10" x1="357.9" y1="441.53" x2="357.9" y2="751.36"/>
		
			<line opacity="0.5882" clip-path="url(#SVGID_2_)" fill="none" stroke="#AAABAB" stroke-width="0.2586" stroke-linecap="round" stroke-miterlimit="10" x1="235.97" y1="482.75" x2="235.97" y2="751.36"/>
		
			<line opacity="0.5882" clip-path="url(#SVGID_2_)" fill="none" stroke="#AAABAB" stroke-width="0.2586" stroke-linecap="round" stroke-miterlimit="10" x1="132.56" y1="488.07" x2="132.56" y2="751.36"/>
		
			<line opacity="0.5882" clip-path="url(#SVGID_2_)" fill="none" stroke="#AAABAB" stroke-width="0.2586" stroke-linecap="round" stroke-miterlimit="10" x1="171.7" y1="537.27" x2="171.7" y2="751.36"/>
		
			<line opacity="0.5882" clip-path="url(#SVGID_2_)" fill="none" stroke="#AAABAB" stroke-width="0.2586" stroke-linecap="round" stroke-miterlimit="10" x1="336.72" y1="567.86" x2="336.72" y2="751.36"/>
		
			<line opacity="0.5882" clip-path="url(#SVGID_2_)" fill="none" stroke="#AAABAB" stroke-width="0.2586" stroke-linecap="round" stroke-miterlimit="10" x1="204.46" y1="558.55" x2="204.46" y2="751.36"/>
		
			<line opacity="0.5882" clip-path="url(#SVGID_2_)" fill="none" stroke="#AAABAB" stroke-width="0.2586" stroke-linecap="round" stroke-miterlimit="10" x1="222.07" y1="597.11" x2="222.07" y2="751.36"/>
		
			<line opacity="0.5882" clip-path="url(#SVGID_2_)" fill="none" stroke="#AAABAB" stroke-width="0.2586" stroke-linecap="round" stroke-miterlimit="10" x1="292.81" y1="615.73" x2="292.81" y2="751.36"/>
		
			<line opacity="0.5882" clip-path="url(#SVGID_2_)" fill="none" stroke="#AAABAB" stroke-width="0.2586" stroke-linecap="round" stroke-miterlimit="10" x1="306.14" y1="641" x2="306.14" y2="751.36"/>
		
			<line opacity="0.5882" clip-path="url(#SVGID_2_)" fill="none" stroke="#AAABAB" stroke-width="0.2586" stroke-linecap="round" stroke-miterlimit="10" x1="269.78" y1="627.7" x2="269.78" y2="751.36"/>
		
			<line opacity="0.5882" clip-path="url(#SVGID_2_)" fill="none" stroke="#AAABAB" stroke-width="0.2586" stroke-linecap="round" stroke-miterlimit="10" x1="401.2" y1="637.01" x2="401.2" y2="751.36"/>
		
			<line opacity="0.5882" clip-path="url(#SVGID_2_)" fill="none" stroke="#AAABAB" stroke-width="0.2586" stroke-linecap="round" stroke-miterlimit="10" x1="316.14" y1="670.25" x2="316.14" y2="751.36"/>
		
			<line opacity="0.5882" clip-path="url(#SVGID_2_)" fill="none" stroke="#AAABAB" stroke-width="0.2586" stroke-linecap="round" stroke-miterlimit="10" x1="198.02" y1="650.3" x2="198.02" y2="751.36"/>
		
			<line opacity="0.5882" clip-path="url(#SVGID_2_)" fill="none" stroke="#AAABAB" stroke-width="0.2586" stroke-linecap="round" stroke-miterlimit="10" x1="520.26" y1="630.36" x2="520.26" y2="751.36"/>
		
			<line opacity="0.5882" clip-path="url(#SVGID_2_)" fill="none" stroke="#AAABAB" stroke-width="0.2586" stroke-linecap="round" stroke-miterlimit="10" x1="282.01" y1="668.92" x2="282.01" y2="751.36"/>
		
			<line opacity="0.5882" clip-path="url(#SVGID_2_)" fill="none" stroke="#AAABAB" stroke-width="0.2586" stroke-linecap="round" stroke-miterlimit="10" x1="309.09" y1="674.24" x2="309.09" y2="751.36"/>
		
			<line opacity="0.5882" clip-path="url(#SVGID_2_)" fill="none" stroke="#AAABAB" stroke-width="0.2586" stroke-linecap="round" stroke-miterlimit="10" x1="435.91" y1="678.23" x2="435.91" y2="751.36"/>
		
			<line opacity="0.5882" clip-path="url(#SVGID_2_)" fill="none" stroke="#AAABAB" stroke-width="0.2586" stroke-linecap="round" stroke-miterlimit="10" x1="443.37" y1="671.58" x2="443.37" y2="751.36"/>
		
			<line opacity="0.5882" clip-path="url(#SVGID_2_)" fill="none" stroke="#AAABAB" stroke-width="0.2586" stroke-linecap="round" stroke-miterlimit="10" x1="336.99" y1="687.54" x2="336.99" y2="751.36"/>
		
			<line opacity="0.5882" clip-path="url(#SVGID_2_)" fill="none" stroke="#AAABAB" stroke-width="0.2586" stroke-linecap="round" stroke-miterlimit="10" x1="481.79" y1="672.91" x2="481.79" y2="751.36"/>
		
			<line opacity="0.5882" clip-path="url(#SVGID_2_)" fill="none" stroke="#AAABAB" stroke-width="0.2586" stroke-linecap="round" stroke-miterlimit="10" x1="191.89" y1="710.14" x2="191.89" y2="751.36"/>
		
			<line opacity="0.5882" clip-path="url(#SVGID_2_)" fill="none" stroke="#AAABAB" stroke-width="0.2586" stroke-linecap="round" stroke-miterlimit="10" x1="243.93" y1="699.5" x2="243.93" y2="751.36"/>
		
			<line opacity="0.5882" clip-path="url(#SVGID_2_)" fill="none" stroke="#AAABAB" stroke-width="0.2586" stroke-linecap="round" stroke-miterlimit="10" x1="365.48" y1="695.52" x2="365.48" y2="751.36"/>
		
			<line opacity="0.5882" clip-path="url(#SVGID_2_)" fill="none" stroke="#AAABAB" stroke-width="0.2586" stroke-linecap="round" stroke-miterlimit="10" x1="397.67" y1="694.19" x2="397.67" y2="751.36"/>
		
			<line opacity="0.5882" clip-path="url(#SVGID_2_)" fill="none" stroke="#AAABAB" stroke-width="0.2586" stroke-linecap="round" stroke-miterlimit="10" x1="388.54" y1="703.49" x2="388.54" y2="751.36"/>
		
			<line opacity="0.5882" clip-path="url(#SVGID_2_)" fill="none" stroke="#AAABAB" stroke-width="0.2586" stroke-linecap="round" stroke-miterlimit="10" x1="301.54" y1="696.84" x2="301.54" y2="751.36"/>
		
			<line opacity="0.5882" clip-path="url(#SVGID_2_)" fill="none" stroke="#AAABAB" stroke-width="0.2586" stroke-linecap="round" stroke-miterlimit="10" x1="235.56" y1="719.45" x2="235.56" y2="751.36"/>
		
			<line opacity="0.5882" clip-path="url(#SVGID_2_)" fill="none" stroke="#AAABAB" stroke-width="0.2586" stroke-linecap="round" stroke-miterlimit="10" x1="379.56" y1="715.46" x2="379.56" y2="751.36"/>
		
			<line opacity="0.5882" clip-path="url(#SVGID_2_)" fill="none" stroke="#AAABAB" stroke-width="0.2586" stroke-linecap="round" stroke-miterlimit="10" x1="517.45" y1="704.82" x2="517.45" y2="751.36"/>
		
			<line opacity="0.5882" clip-path="url(#SVGID_2_)" fill="none" stroke="#AAABAB" stroke-width="0.2586" stroke-linecap="round" stroke-miterlimit="10" x1="163.58" y1="718.12" x2="163.58" y2="751.36"/>
		
			<line opacity="0.5882" clip-path="url(#SVGID_2_)" fill="none" stroke="#AAABAB" stroke-width="0.2586" stroke-linecap="round" stroke-miterlimit="10" x1="207.46" y1="718.12" x2="207.46" y2="751.36"/>
		
			<line opacity="0.5882" clip-path="url(#SVGID_2_)" fill="none" stroke="#AAABAB" stroke-width="0.2586" stroke-linecap="round" stroke-miterlimit="10" x1="108.16" y1="726.1" x2="108.16" y2="751.36"/>
		
			<line opacity="0.5882" clip-path="url(#SVGID_2_)" fill="none" stroke="#AAABAB" stroke-width="0.2586" stroke-linecap="round" stroke-miterlimit="10" x1="167.56" y1="730.09" x2="167.56" y2="751.36"/>
		
			<line opacity="0.5882" clip-path="url(#SVGID_2_)" fill="none" stroke="#AAABAB" stroke-width="0.2586" stroke-linecap="round" stroke-miterlimit="10" x1="221.32" y1="731.42" x2="221.32" y2="751.36"/>
		
			<line opacity="0.5882" clip-path="url(#SVGID_2_)" fill="none" stroke="#AAABAB" stroke-width="0.2586" stroke-linecap="round" stroke-miterlimit="10" x1="312.9" y1="724.77" x2="312.9" y2="751.36"/>
		
			<line opacity="0.5882" clip-path="url(#SVGID_2_)" fill="none" stroke="#AAABAB" stroke-width="0.2586" stroke-linecap="round" stroke-miterlimit="10" x1="107.17" y1="727.43" x2="107.17" y2="751.36"/>
		
			<line opacity="0.5882" clip-path="url(#SVGID_2_)" fill="none" stroke="#AAABAB" stroke-width="0.2586" stroke-linecap="round" stroke-miterlimit="10" x1="315.07" y1="735.41" x2="315.07" y2="751.36"/>
		
			<line opacity="0.5882" clip-path="url(#SVGID_2_)" fill="none" stroke="#AAABAB" stroke-width="0.2586" stroke-linecap="round" stroke-miterlimit="10" x1="108.93" y1="734.08" x2="108.93" y2="751.36"/>
		
			<line opacity="0.5882" clip-path="url(#SVGID_2_)" fill="none" stroke="#AAABAB" stroke-width="0.2586" stroke-linecap="round" stroke-miterlimit="10" x1="193.21" y1="739.4" x2="193.21" y2="751.36"/>
		
			<line opacity="0.5882" clip-path="url(#SVGID_2_)" fill="none" stroke="#AAABAB" stroke-width="0.2586" stroke-linecap="round" stroke-miterlimit="10" x1="184.81" y1="739.4" x2="184.81" y2="751.36"/>
		
			<line opacity="0.5882" clip-path="url(#SVGID_2_)" fill="none" stroke="#AAABAB" stroke-width="0.2586" stroke-linecap="round" stroke-miterlimit="10" x1="394.62" y1="740.73" x2="394.62" y2="751.36"/>
		
			<line opacity="0.5882" clip-path="url(#SVGID_2_)" fill="none" stroke="#AAABAB" stroke-width="0.2586" stroke-linecap="round" stroke-miterlimit="10" x1="302.99" y1="736.74" x2="302.99" y2="751.36"/>
		
			<line opacity="0.5882" clip-path="url(#SVGID_2_)" fill="none" stroke="#AAABAB" stroke-width="0.2586" stroke-linecap="round" stroke-miterlimit="10" x1="122.89" y1="738.07" x2="122.89" y2="751.36"/>
		
			<line opacity="0.5882" clip-path="url(#SVGID_2_)" fill="none" stroke="#AAABAB" stroke-width="0.2586" stroke-linecap="round" stroke-miterlimit="10" x1="277.99" y1="740.73" x2="277.99" y2="751.36"/>
		
			<line opacity="0.5882" clip-path="url(#SVGID_2_)" fill="none" stroke="#AAABAB" stroke-width="0.2586" stroke-linecap="round" stroke-miterlimit="10" x1="412.08" y1="738.07" x2="412.08" y2="751.36"/>
		
			<line opacity="0.5882" clip-path="url(#SVGID_2_)" fill="none" stroke="#AAABAB" stroke-width="0.2586" stroke-linecap="round" stroke-miterlimit="10" x1="302.26" y1="740.73" x2="302.26" y2="751.36"/>
		
			<line opacity="0.5882" clip-path="url(#SVGID_2_)" fill="none" stroke="#AAABAB" stroke-width="0.2586" stroke-linecap="round" stroke-miterlimit="10" x1="249.84" y1="736.74" x2="249.84" y2="751.36"/>
		
			<line opacity="0.5882" clip-path="url(#SVGID_2_)" fill="none" stroke="#AAABAB" stroke-width="0.2586" stroke-linecap="round" stroke-miterlimit="10" x1="192.87" y1="746.05" x2="192.87" y2="751.36"/>
		
			<line opacity="0.5882" clip-path="url(#SVGID_2_)" fill="none" stroke="#AAABAB" stroke-width="0.2586" stroke-linecap="round" stroke-miterlimit="10" x1="459.08" y1="742.06" x2="459.08" y2="751.36"/>
		
			<line opacity="0.5882" clip-path="url(#SVGID_2_)" fill="none" stroke="#AAABAB" stroke-width="0.2586" stroke-linecap="round" stroke-miterlimit="10" x1="404.53" y1="744.72" x2="404.53" y2="751.36"/>
		
			<line opacity="0.5882" clip-path="url(#SVGID_2_)" fill="none" stroke="#AAABAB" stroke-width="0.2586" stroke-linecap="round" stroke-miterlimit="10" x1="124.23" y1="746.05" x2="124.23" y2="751.36"/>
		
			<line opacity="0.5882" clip-path="url(#SVGID_2_)" fill="none" stroke="#AAABAB" stroke-width="0.2586" stroke-linecap="round" stroke-miterlimit="10" x1="290.15" y1="744.72" x2="290.15" y2="751.36"/>
		
			<line opacity="0.5882" clip-path="url(#SVGID_2_)" fill="none" stroke="#AAABAB" stroke-width="0.2586" stroke-linecap="round" stroke-miterlimit="10" x1="193.75" y1="746.05" x2="193.75" y2="751.36"/>
		
			<line opacity="0.5882" clip-path="url(#SVGID_2_)" fill="none" stroke="#292A4F" stroke-width="0.2586" stroke-linecap="round" stroke-miterlimit="10" x1="466.68" y1="744.72" x2="466.68" y2="751.36"/>
		
			<line clip-path="url(#SVGID_2_)" fill="none" stroke="#6464DC" stroke-linecap="round" stroke-miterlimit="10" x1="-111" y1="-100" x2="-91" y2="-100"/>
		
			<line clip-path="url(#SVGID_2_)" fill="none" stroke="#6464DC" stroke-linecap="round" stroke-miterlimit="10" x1="-101" y1="-110" x2="-101" y2="-90"/>
		
			<line clip-path="url(#SVGID_2_)" fill="none" stroke="#6464DC" stroke-linecap="round" stroke-miterlimit="10" x1="674" y1="874" x2="694" y2="874"/>
		
			<line clip-path="url(#SVGID_2_)" fill="none" stroke="#6464DC" stroke-linecap="round" stroke-miterlimit="10" x1="684" y1="864" x2="684" y2="884"/>
	</g>
</g>
<g id="Layer_4" display="none">
</g>
</svg>
