<svg height="774" width="585">
<text x="221.89227" y="391.01733" fill="black">string theory</text>
<text x="331.3368" y="381.66122" fill="black">black hole</text>
<text x="225.27484" y="294.45953" fill="black">physical cosmology</text>
<text x="377.14395" y="449.04977" fill="black">gravitation</text>
<text x="336.62134" y="470.7216" fill="black">spacetime</text>
<text x="214.59512" y="374.66507" fill="black">dark matter</text>
<text x="285.14655" y="410.91684" fill="black">special relativity</text>
<text x="316.14435" y="301.7619" fill="black">quantum gravity</text>
<text x="254.04912" y="418.43802" fill="black">time</text>
<text x="225.95383" y="319.4399" fill="black">big bang</text>
<text x="269.02057" y="387.4697" fill="black">gravitational wave</text>
<text x="298.3118" y="396.00327" fill="black">symmetry</text>
<text x="318.35712" y="347.9509" fill="black">hawking radiation</text>
<text x="312.76932" y="359.69983" fill="black">standard model</text>
<text x="289.53528" y="437.919" fill="black">neutron star</text>
<text x="240.22179" y="300.12485" fill="black">dark energy</text>
<text x="182.6985" y="272.5214" fill="black">schwarzschild radius</text>
<text x="272.11215" y="254.90295" fill="black">cosmological constant</text>
<text x="276.22552" y="469.2003" fill="black">white dwarf</text>
<text x="212.4912" y="418.1845" fill="black">euclidean space</text>
<text x="381.31146" y="415.37366" fill="black">event horizon</text>
<text x="259.3404" y="450.6979" fill="black">supernova</text>
<text x="410.0396" y="296.9465" fill="black">schwarzschild metric</text>
<text x="242.30641" y="341.84613" fill="black">cosmic microwave background radiation</text>
<text x="261.55185" y="371.445" fill="black">noether's theorem</text>
<text x="345.7733" y="390.29126" fill="black">black hole thermodynamics</text>
<text x="405.3366" y="374.25558" fill="black">black holes</text>
<text x="330.4913" y="436.8143" fill="black">hilbert space</text>
<text x="402.56604" y="385.20132" fill="black">gravitational singularity</text>
<text x="289.07733" y="365.39276" fill="black">de sitter space</text>
<text x="326.89102" y="309.26685" fill="black">loop quantum gravity</text>
<text x="373.7126" y="288.27606" fill="black">frame-dragging</text>
<text x="226.7264" y="322.05344" fill="black">hubble's law</text>
<text x="294.8867" y="291.81732" fill="black">cosmology</text>
<text x="189.49237" y="404.1675" fill="black">multiverse</text>
<text x="282.71692" y="399.43167" fill="black">minkowski space</text>
<text x="258.68063" y="403.88303" fill="black">supersymmetry</text>
<text x="281.3583" y="463.24884" fill="black">binary star</text>
<text x="368.90204" y="496.63513" fill="black">kerr metric</text>
<text x="271.23206" y="370.87704" fill="black">vacuum energy</text>
<text x="214.19357" y="439.3573" fill="black">accelerating universe</text>
<text x="276.24796" y="312.98535" fill="black">cosmic inflation</text>
<text x="357.12357" y="377.46988" fill="black">de sitter universe</text>
<text x="239.52197" y="427.47168" fill="black">riemannian manifold</text>
<text x="336.82718" y="422.6461" fill="black">wormhole</text>
<text x="230.29027" y="294.42734" fill="black">lambda-cdm model</text>
<text x="273.71783" y="449.84662" fill="black">pulsar</text>
<text x="222.92998" y="478.58658" fill="black">accretion disc</text>
<text x="325.43335" y="417.26093" fill="black">exotic matter</text>
<text x="277.22998" y="341.5774" fill="black">theory of everything</text>
<text x="338.65683" y="277.91534" fill="black">gravitational constant</text>
<text x="367.49994" y="469.49335" fill="black">equivalence principle</text>
<text x="333.74207" y="362.05338" fill="black">black hole information paradox</text>
<text x="203.61525" y="462.86423" fill="black">closed timelike curve</text>
<text x="332.02356" y="410.54114" fill="black">time travel</text>
<text x="208.46765" y="396.77115" fill="black">m-theory</text>
<text x="204.7669" y="496.62088" fill="black">non-euclidean geometry</text>
<text x="416.81522" y="340.36996" fill="black">knot theory</text>
<text x="376.0552" y="446.23416" fill="black">antimatter</text>
<text x="211.40797" y="398.29883" fill="black">gauge theories</text>
<text x="422.44934" y="305.8271" fill="black">quantum hall effect</text>
</svg>
