<svg height="774" width="585">
<text x="212.85019" y="406.38922" fill="black">string theory</text>
<text x="355.1664" y="269.6927" fill="black">black hole</text>
<text x="222.42535" y="357.21704" fill="black">physical cosmology</text>
<text x="428.82266" y="429.00858" fill="black">gravitation</text>
<text x="376.2956" y="496.86536" fill="black">spacetime</text>
<text x="193.3467" y="488.01358" fill="black">dark matter</text>
<text x="298.2993" y="532.2682" fill="black">special relativity</text>
<text x="347.5742" y="557.8362" fill="black">quantum gravity</text>
<text x="249.20729" y="542.10254" fill="black">time</text>
<text x="198.60658" y="606.0243" fill="black">big bang</text>
<text x="270.62003" y="604.05817" fill="black">gravitational wave</text>
<text x="319.7563" y="637.49475" fill="black">symmetry</text>
<text x="353.8049" y="627.66003" fill="black">hawking radiation</text>
<text x="344.17087" y="623.72644" fill="black">standard model</text>
<text x="304.5649" y="664.0478" fill="black">neutron star</text>
<text x="220.3711" y="632.5766" fill="black">dark energy</text>
<text x="122.48062" y="629.62604" fill="black">schwarzschild radius</text>
<text x="274.34064" y="651.2612" fill="black">cosmological constant</text>
<text x="280.77216" y="680.7664" fill="black">white dwarf</text>
<text x="166.02101" y="690.6001" fill="black">euclidean space</text>
<text x="467.38913" y="675.8487" fill="black">event horizon</text>
<text x="250.29298" y="688.63367" fill="black">supernova</text>
<text x="514.5803" y="654.212" fill="black">schwarzschild metric</text>
<text x="217.89734" y="713.21814" fill="black">cosmic microwave background radiation</text>
<text x="254.53279" y="682.7322" fill="black">noether's theorem</text>
<text x="405.88254" y="695.51697" fill="black">black hole thermodynamics</text>
<text x="509.19946" y="670.9311" fill="black">black holes</text>
<text x="378.42416" y="697.4844" fill="black">hilbert space</text>
<text x="508.98563" y="699.4506" fill="black">gravitational singularity</text>
<text x="303.46948" y="721.08575" fill="black">de sitter space</text>
<text x="372.3229" y="705.3503" fill="black">loop quantum gravity</text>
<text x="455.8106" y="691.5821" fill="black">frame-dragging</text>
<text x="189.57184" y="711.251" fill="black">hubble's law</text>
<text x="314.14047" y="712.2341" fill="black">cosmology</text>
<text x="120.46711" y="718.136" fill="black">multiverse</text>
<text x="291.82385" y="716.16907" fill="black">minkowski space</text>
<text x="246.92662" y="731.90393" fill="black">supersymmetry</text>
<text x="289.28152" y="719.1201" fill="black">binary star</text>
<text x="450.29755" y="719.1205" fill="black">kerr metric</text>
<text x="270.53247" y="723.0527" fill="black">vacuum energy</text>
<text x="165.63295" y="720.1032" fill="black">accelerating universe</text>
<text x="279.64484" y="728.9526" fill="black">cosmic inflation</text>
<text x="429.96194" y="732.887" fill="black">de sitter universe</text>
<text x="211.08998" y="734.8545" fill="black">riemannian manifold</text>
<text x="391.95416" y="728.95386" fill="black">wormhole</text>
<text x="194.16844" y="731.9026" fill="black">lambda-cdm model</text>
<text x="274.84293" y="732.8879" fill="black">pulsar</text>
<text x="180.48927" y="731.9048" fill="black">accretion disc</text>
<text x="370.87912" y="729.93726" fill="black">exotic matter</text>
<text x="281.2636" y="737.8037" fill="black">theory of everything</text>
<text x="395.75348" y="734.8527" fill="black">gravitational constant</text>
<text x="448.59912" y="726.98755" fill="black">equivalence principle</text>
<text x="386.6585" y="735.83716" fill="black">black hole information paradox</text>
<text x="144.33524" y="733.8715" fill="black">closed timelike curve</text>
<text x="383.45453" y="735.83777" fill="black">time travel</text>
<text x="152.62761" y="739.7713" fill="black">m-theory</text>
<text x="146.0924" y="736.8222" fill="black">non-euclidean geometry</text>
<text x="542.43616" y="740.754" fill="black">knot theory</text>
<text x="466.1514" y="740.7553" fill="black">antimatter</text>
<text x="158.00728" y="740.7547" fill="black">gauge theories</text>
<text x="552.98096" y="740.75366" fill="black">quantum hall effect</text>
</svg>
