<svg height="774" width="585">
<text x="188.0641" y="365.12146" fill="black">string theory</text>
<text x="346.70648" y="212.74353" fill="black">black hole</text>
<text x="198.73718" y="310.30923" fill="black">physical cosmology</text>
<text x="428.8128" y="390.33508" fill="black">gravitation</text>
<text x="370.2601" y="465.97595" fill="black">spacetime</text>
<text x="166.3231" y="456.10977" fill="black">dark matter</text>
<text x="283.3159" y="505.44073" fill="black">special relativity</text>
<text x="338.24277" y="533.9431" fill="black">quantum gravity</text>
<text x="228.5922" y="516.4032" fill="black">time</text>
<text x="172.18602" y="587.6591" fill="black">big bang</text>
<text x="252.46114" y="585.4667" fill="black">gravitational wave</text>
<text x="307.23425" y="622.73895" fill="black">symmetry</text>
<text x="345.1885" y="611.7765" fill="black">hawking radiation</text>
<text x="334.44937" y="607.3915" fill="black">standard model</text>
<text x="290.3005" y="652.33746" fill="black">neutron star</text>
<text x="196.44714" y="617.2577" fill="black">dark energy</text>
<text x="87.3267" y="613.969" fill="black">schwarzschild radius</text>
<text x="256.60764" y="638.08636" fill="black">cosmological constant</text>
<text x="263.77853" y="670.97363" fill="black">white dwarf</text>
<text x="135.863" y="681.9361" fill="black">euclidean space</text>
<text x="471.80338" y="665.49243" fill="black">event horizon</text>
<text x="229.8027" y="679.7436" fill="black">supernova</text>
<text x="524.40735" y="641.3751" fill="black">schwarzschild metric</text>
<text x="193.68988" y="707.1498" fill="black">cosmic microwave background radiation</text>
<text x="234.5283" y="673.16614" fill="black">noether's theorem</text>
<text x="403.24066" y="687.41736" fill="black">black hole thermodynamics</text>
<text x="518.4097" y="660.0112" fill="black">black holes</text>
<text x="372.63275" y="689.6098" fill="black">hilbert space</text>
<text x="518.1716" y="691.8023" fill="black">gravitational singularity</text>
<text x="289.07883" y="715.9197" fill="black">de sitter space</text>
<text x="365.83054" y="698.37976" fill="black">loop quantum gravity</text>
<text x="458.8956" y="683.03235" fill="black">frame-dragging</text>
<text x="162.11478" y="704.9572" fill="black">hubble's law</text>
<text x="300.97342" y="706.0535" fill="black">cosmology</text>
<text x="85.08316" y="712.631" fill="black">multiverse</text>
<text x="276.09753" y="710.4385" fill="black">minkowski space</text>
<text x="226.04982" y="727.9784" fill="black">supersymmetry</text>
<text x="273.26404" y="713.7272" fill="black">binary star</text>
<text x="452.75168" y="713.7272" fill="black">kerr metric</text>
<text x="252.36342" y="718.1122" fill="black">vacuum energy</text>
<text x="135.43059" y="714.82336" fill="black">accelerating universe</text>
<text x="262.5207" y="724.68964" fill="black">cosmic inflation</text>
<text x="430.08234" y="729.07465" fill="black">de sitter universe</text>
<text x="186.10226" y="731.2671" fill="black">riemannian manifold</text>
<text x="387.71475" y="724.68964" fill="black">wormhole</text>
<text x="167.23848" y="727.9784" fill="black">lambda-cdm model</text>
<text x="257.169" y="729.0746" fill="black">pulsar</text>
<text x="151.9915" y="727.97833" fill="black">accretion disc</text>
<text x="364.22195" y="725.7859" fill="black">exotic matter</text>
<text x="264.3254" y="734.55585" fill="black">theory of everything</text>
<text x="391.9488" y="731.2671" fill="black">gravitational constant</text>
<text x="450.85825" y="722.49713" fill="black">equivalence principle</text>
<text x="381.81113" y="732.36334" fill="black">black hole information paradox</text>
<text x="111.68982" y="730.17084" fill="black">closed timelike curve</text>
<text x="378.24" y="732.36334" fill="black">time travel</text>
<text x="120.932976" y="736.74835" fill="black">m-theory</text>
<text x="113.648865" y="733.4596" fill="black">non-euclidean geometry</text>
<text x="555.45905" y="737.84454" fill="black">knot theory</text>
<text x="470.42392" y="737.8445" fill="black">antimatter</text>
<text x="126.92979" y="737.84454" fill="black">gauge theories</text>
<text x="567.21326" y="737.84454" fill="black">quantum hall effect</text>
</svg>
