<svg height="774" width="585">
<text x="434.06296" y="311.6245" fill="black">string theory</text>
<text x="271.681" y="240.60486" fill="black">black hole</text>
<text x="374.29" y="352.03232" fill="black">physical cosmology</text>
<text x="342.174" y="431.6234" fill="black">gravitation</text>
<text x="419.90973" y="469.58218" fill="black">spacetime</text>
<text x="427.04202" y="474.48007" fill="black">dark matter</text>
<text x="449.45294" y="519.7858" fill="black">special relativity</text>
<text x="314.747" y="547.9488" fill="black">quantum gravity</text>
<text x="373.49683" y="539.37744" fill="black">time</text>
<text x="327.02405" y="574.88727" fill="black">big bang</text>
<text x="265.99835" y="592.02997" fill="black">gravitational wave</text>
<text x="341.62335" y="615.29504" fill="black">symmetry</text>
<text x="326.11627" y="603.0503" fill="black">hawking radiation</text>
<text x="230.6909" y="611.62164" fill="black">standard model</text>
<text x="288.23544" y="642.2335" fill="black">neutron star</text>
<text x="349.88797" y="623.86633" fill="black">dark energy</text>
<text x="154.35477" y="605.49927" fill="black">schwarzschild radius</text>
<text x="292.85553" y="641.00903" fill="black">cosmological constant</text>
<text x="270.94257" y="645.907" fill="black">white dwarf</text>
<text x="244.45193" y="649.58044" fill="black">euclidean space</text>
<text x="282.88855" y="643.45807" fill="black">event horizon</text>
<text x="251.36494" y="658.1518" fill="black">supernova</text>
<text x="77.921104" y="644.68256" fill="black">schwarzschild metric</text>
<text x="342.58826" y="678.9679" fill="black">cosmic microwave background radiation</text>
<text x="366.28012" y="669.17206" fill="black">noether's theorem</text>
<text x="151.69302" y="665.49866" fill="black">black hole thermodynamics</text>
<text x="21.951513" y="664.27423" fill="black">black holes</text>
<text x="290.07687" y="672.8455" fill="black">hilbert space</text>
<text x="353.4423" y="666.7232" fill="black">gravitational singularity</text>
<text x="399.68405" y="687.5393" fill="black">de sitter space</text>
<text x="271.85504" y="683.8659" fill="black">loop quantum gravity</text>
<text x="51.791325" y="674.07007" fill="black">frame-dragging</text>
<text x="376.13373" y="686.31476" fill="black">hubble's law</text>
<text x="397.87805" y="686.31476" fill="black">cosmology</text>
<text x="463.18665" y="693.6616" fill="black">multiverse</text>
<text x="442.6378" y="697.3351" fill="black">minkowski space</text>
<text x="464.10953" y="698.5596" fill="black">supersymmetry</text>
<text x="273.32315" y="692.43713" fill="black">binary star</text>
<text x="647.8568" y="694.88617" fill="black">kerr metric</text>
<text x="231.7787" y="702.2329" fill="black">vacuum energy</text>
<text x="428.1364" y="701.0085" fill="black">accelerating universe</text>
<text x="400.44217" y="705.90643" fill="black">cosmic inflation</text>
<text x="461.25912" y="705.9065" fill="black">de sitter universe</text>
<text x="303.23657" y="707.1309" fill="black">riemannian manifold</text>
<text x="377.3792" y="703.4575" fill="black">wormhole</text>
<text x="425.96002" y="704.68195" fill="black">lambda-cdm model</text>
<text x="331.08514" y="707.13086" fill="black">pulsar</text>
<text x="156.33536" y="704.68195" fill="black">accretion disc</text>
<text x="361.61594" y="707.1309" fill="black">exotic matter</text>
<text x="397.76956" y="703.4575" fill="black">theory of everything</text>
<text x="499.66293" y="712.0289" fill="black">gravitational constant</text>
<text x="258.11145" y="708.3554" fill="black">equivalence principle</text>
<text x="201.28079" y="710.8043" fill="black">black hole information paradox</text>
<text x="660.64185" y="712.0289" fill="black">closed timelike curve</text>
<text x="375.87717" y="710.8044" fill="black">time travel</text>
<text x="486.32355" y="712.0289" fill="black">m-theory</text>
<text x="234.23688" y="710.8044" fill="black">non-euclidean geometry</text>
</svg>
