<svg height="1625" width="1075">
<text x="692.32153" y="801.4276" fill="black">string theory</text>
<text x="515.4184" y="602.03485" fill="black">black hole</text>
<text x="323.74332" y="741.8614" fill="black">physical cosmology</text>
<text x="829.8473" y="721.8854" fill="black">gravitation</text>
<text x="663.61053" y="818.1619" fill="black">spacetime</text>
<text x="325.448" y="827.28937" fill="black">dark matter</text>
<text x="537.6539" y="862.18677" fill="black">special relativity</text>
<text x="663.7001" y="714.8749" fill="black">quantum gravity</text>
<text x="397.65613" y="779.89386" fill="black">time</text>
<text x="303.45724" y="734.43256" fill="black">big bang</text>
<text x="346.50134" y="668.60706" fill="black">gravitational wave</text>
<text x="646.76685" y="759.4301" fill="black">symmetry</text>
<text x="467.47687" y="739.2533" fill="black">hawking radiation</text>
<text x="607.61096" y="632.5331" fill="black">standard model</text>
<text x="502.76312" y="704.3248" fill="black">neutron star</text>
<text x="295.92056" y="770.60846" fill="black">dark energy</text>
<text x="975.7979" y="544.46436" fill="black">schwarzschild radius</text>
<text x="398.76456" y="709.3235" fill="black">cosmological constant</text>
<text x="435.82394" y="685.4256" fill="black">white dwarf</text>
<text x="775.29144" y="656.0685" fill="black">euclidean space</text>
<text x="930.26984" y="698.4998" fill="black">event horizon</text>
<text x="452.10666" y="665.7101" fill="black">supernova</text>
<text x="220.7258" y="465.69983" fill="black">schwarzschild metric</text>
<text x="250.01315" y="773.7597" fill="black">cosmic microwave background radiation</text>
<text x="511.63522" y="798.66235" fill="black">noether's theorem</text>
<text x="67.06127" y="553.90674" fill="black">black hole thermodynamics</text>
<text x="693.08795" y="406.13232" fill="black">black holes</text>
<text x="762.4311" y="712.7805" fill="black">hilbert space</text>
<text x="992.2632" y="783.55664" fill="black">gravitational singularity</text>
<text x="594.35016" y="840.46075" fill="black">de sitter space</text>
<text x="669.85876" y="694.3519" fill="black">loop quantum gravity</text>
<text x="818.464" y="442.09692" fill="black">frame-dragging</text>
<text x="263.3494" y="813.42883" fill="black">hubble's law</text>
<text x="489.91168" y="838.15283" fill="black">cosmology</text>
<text x="361.21988" y="913.9375" fill="black">multiverse</text>
<text x="500.28378" y="891.33624" fill="black">minkowski space</text>
<text x="760.5141" y="916.0048" fill="black">supersymmetry</text>
<text x="416.57697" y="697.8024" fill="black">binary star</text>
<text x="717.2972" y="1124.1676" fill="black">kerr metric</text>
<text x="309.71155" y="652.60077" fill="black">vacuum energy</text>
<text x="246.41705" y="875.6111" fill="black">accelerating universe</text>
<text x="448.611" y="845.1399" fill="black">cosmic inflation</text>
<text x="623.1252" y="914.29065" fill="black">de sitter universe</text>
<text x="827.8215" y="734.86865" fill="black">riemannian manifold</text>
<text x="755.63556" y="818.4077" fill="black">wormhole</text>
<text x="287.96774" y="873.8999" fill="black">lambda-cdm model</text>
<text x="512.8629" y="766.53326" fill="black">pulsar</text>
<text x="396.38528" y="567.3285" fill="black">accretion disc</text>
<text x="700.2233" y="801.24774" fill="black">exotic matter</text>
<text x="637.92847" y="841.5921" fill="black">theory of everything</text>
<text x="780.13873" y="959.2294" fill="black">gravitational constant</text>
<text x="902.2132" y="683.81445" fill="black">equivalence principle</text>
<text x="520.6427" y="619.70514" fill="black">black hole information paradox</text>
<text x="603.25696" y="1142.2672" fill="black">closed timelike curve</text>
<text x="705.6278" y="818.2266" fill="black">time travel</text>
<text x="738.4763" y="944.062" fill="black">m-theory</text>
<text x="848.7522" y="657.1773" fill="black">non-euclidean geometry</text>
</svg>
