<svg height="774" width="585">
<text x="-335.26654" y="912.1623" fill="black">string theory</text>
<text x="3220.5505" y="-7508.2314" fill="black">black hole</text>
<text x="-370.4113" y="-416.2379" fill="black">physical cosmology</text>
<text x="429.2589" y="680.19763" fill="black">gravitation</text>
<text x="93.00024" y="507.17767" fill="black">spacetime</text>
<text x="-164.44373" y="57.1734" fill="black">dark matter</text>
<text x="-9.448307" y="375.06134" fill="black">special relativity</text>
<text x="337.99936" y="373.001" fill="black">quantum gravity</text>
<text x="75.12131" y="148.75018" fill="black">time</text>
<text x="129.05876" y="40.515076" fill="black">big bang</text>
<text x="257.52283" y="42.87622" fill="black">gravitational wave</text>
<text x="281.0141" y="383.00208" fill="black">symmetry</text>
<text x="220.42847" y="211.06873" fill="black">hawking radiation</text>
<text x="434.7872" y="257.1635" fill="black">standard model</text>
<text x="296.75204" y="227.00055" fill="black">neutron star</text>
<text x="111.67908" y="95.678955" fill="black">dark energy</text>
<text x="632.98425" y="475.47098" fill="black">schwarzschild radius</text>
<text x="245.47028" y="146.55481" fill="black">cosmological constant</text>
<text x="286.23932" y="159.82855" fill="black">white dwarf</text>
<text x="473.0111" y="411.2045" fill="black">euclidean space</text>
<text x="486.82104" y="564.68945" fill="black">event horizon</text>
<text x="326.6659" y="166.66919" fill="black">supernova</text>
<text x="543.48047" y="230.65381" fill="black">schwarzschild metric</text>
<text x="125.46608" y="92.567566" fill="black">cosmic microwave background radiation</text>
<text x="194.92387" y="299.684" fill="black">noether's theorem</text>
<text x="366.50867" y="99.66339" fill="black">black hole thermodynamics</text>
<text x="412.50153" y="233.99927" fill="black">black holes</text>
<text x="397.44778" y="432.92484" fill="black">hilbert space</text>
<text x="275.86154" y="574.992" fill="black">gravitational singularity</text>
<text x="187.54802" y="385.94656" fill="black">de sitter space</text>
<text x="382.66452" y="351.79242" fill="black">loop quantum gravity</text>
<text x="576.46594" y="303.90244" fill="black">frame-dragging</text>
<text x="89.82429" y="130.20343" fill="black">hubble's law</text>
<text x="149.22905" y="309.1493" fill="black">cosmology</text>
<text x="19.209211" y="263.31195" fill="black">multiverse</text>
<text x="99.86711" y="348.59622" fill="black">minkowski space</text>
<text x="171.24269" y="546.4952" fill="black">supersymmetry</text>
<text x="291.95547" y="161.58575" fill="black">binary star</text>
<text x="18.615553" y="570.00195" fill="black">kerr metric</text>
<text x="294.81357" y="74.61224" fill="black">vacuum energy</text>
<text x="24.496424" y="161.26526" fill="black">accelerating universe</text>
<text x="136.63379" y="285.41687" fill="black">cosmic inflation</text>
<text x="125.72929" y="446.85443" fill="black">de sitter universe</text>
<text x="397.76343" y="483.57706" fill="black">riemannian manifold</text>
<text x="279.04544" y="483.52063" fill="black">wormhole</text>
<text x="44.72666" y="190.45453" fill="black">lambda-cdm model</text>
<text x="246.78156" y="284.16083" fill="black">pulsar</text>
<text x="421.03378" y="86.23633" fill="black">accretion disc</text>
<text x="278.2044" y="433.99945" fill="black">exotic matter</text>
<text x="209.7091" y="415.08258" fill="black">theory of everything</text>
<text x="138.18382" y="578.7943" fill="black">gravitational constant</text>
<text x="480.73334" y="504.83023" fill="black">equivalence principle</text>
<text x="409.6899" y="204.92383" fill="black">black hole information paradox</text>
<text x="50.233234" y="385.42886" fill="black">closed timelike curve</text>
<text x="262.7505" y="446.7288" fill="black">time travel</text>
<text x="139.30629" y="541.5174" fill="black">m-theory</text>
<text x="489.5321" y="451.83023" fill="black">non-euclidean geometry</text>
</svg>
