<svg height="774" width="585">
<text x="175.45909" y="408.84235" fill="black">string theory</text>
<text x="339.1655" y="410.79865" fill="black">black hole</text>
<text x="186.47289" y="270.42346" fill="black">physical cosmology</text>
<text x="423.89273" y="499.88312" fill="black">gravitation</text>
<text x="363.47095" y="536.8275" fill="black">spacetime</text>
<text x="153.02412" y="372.22324" fill="black">dark matter</text>
<text x="273.7514" y="431.06192" fill="black">special relativity</text>
<text x="330.4316" y="229.46112" fill="black">quantum gravity</text>
<text x="217.28088" y="443.9171" fill="black">time</text>
<text x="159.07416" y="250.82019" fill="black">big bang</text>
<text x="241.91174" y="381.13892" fill="black">gravitational wave</text>
<text x="298.4333" y="394.17386" fill="black">symmetry</text>
<text x="337.59906" y="301.46167" fill="black">hawking radiation</text>
<text x="326.51715" y="324.9912" fill="black">standard model</text>
<text x="280.95898" y="475.9005" fill="black">neutron star</text>
<text x="184.10974" y="206.94922" fill="black">dark energy</text>
<text x="71.506065" y="153.81873" fill="black">schwarzschild radius</text>
<text x="246.1906" y="112.09515" fill="black">cosmological constant</text>
<text x="253.59042" y="539.2838" fill="black">white dwarf</text>
<text x="121.5917" y="434.6256" fill="black">euclidean space</text>
<text x="468.2556" y="429.79254" fill="black">event horizon</text>
<text x="218.53004" y="501.5074" fill="black">supernova</text>
<text x="522.5388" y="194.96002" fill="black">schwarzschild metric</text>
<text x="181.26447" y="273.31708" fill="black">cosmic microwave background radiation</text>
<text x="223.40648" y="339.58707" fill="black">noether's theorem</text>
<text x="397.5043" y="376.72754" fill="black">black hole thermodynamics</text>
<text x="516.34973" y="346.91754" fill="black">black holes</text>
<text x="365.91934" y="472.75305" fill="black">hilbert space</text>
<text x="516.1039" y="365.76013" fill="black">gravitational singularity</text>
<text x="279.69833" y="321.4804" fill="black">de sitter space</text>
<text x="358.90002" y="206.98047" fill="black">loop quantum gravity</text>
<text x="454.93582" y="167.15118" fill="black">frame-dragging</text>
<text x="148.68147" y="232.28247" fill="black">hubble's law</text>
<text x="291.97256" y="168.75519" fill="black">cosmology</text>
<text x="69.1909" y="403.4978" fill="black">multiverse</text>
<text x="266.30264" y="393.71436" fill="black">minkowski space</text>
<text x="214.65735" y="401.74396" fill="black">supersymmetry</text>
<text x="263.37872" y="527.8128" fill="black">binary star</text>
<text x="448.59573" y="598.10834" fill="black">kerr metric</text>
<text x="241.81093" y="332.77017" fill="black">vacuum energy</text>
<text x="121.145485" y="477.4857" fill="black">accelerating universe</text>
<text x="252.29239" y="209.07788" fill="black">cosmic inflation</text>
<text x="425.20276" y="345.4269" fill="black">de sitter universe</text>
<text x="173.43463" y="451.79672" fill="black">riemannian manifold</text>
<text x="381.48282" y="441.8127" fill="black">wormhole</text>
<text x="153.96872" y="168.89288" fill="black">lambda-cdm model</text>
<text x="246.76988" y="499.51953" fill="black">pulsar</text>
<text x="138.235" y="560.6649" fill="black">accretion disc</text>
<text x="357.24008" y="430.3236" fill="black">exotic matter</text>
<text x="254.15474" y="268.07477" fill="black">theory of everything</text>
<text x="385.852" y="132.8836" fill="black">gravitational constant</text>
<text x="446.64188" y="541.18207" fill="black">equivalence principle</text>
<text x="375.3907" y="312.1463" fill="black">black hole information paradox</text>
<text x="96.64688" y="527.2511" fill="black">closed timelike curve</text>
<text x="371.70554" y="415.62274" fill="black">time travel</text>
<text x="106.1851" y="385.85873" fill="black">m-theory</text>
<text x="98.668465" y="599.39655" fill="black">non-euclidean geometry</text>
<text x="554.58167" y="264.9263" fill="black">knot theory</text>
<text x="466.83215" y="491.73727" fill="black">antimatter</text>
<text x="112.37333" y="389.03723" fill="black">gauge theories</text>
<text x="566.711" y="190.91919" fill="black">quantum hall effect</text>
</svg>
