<svg height="774" width="585">
<text x="192.82571" y="400.2427" fill="black">string theory</text>
<text x="336.884" y="261.87292" fill="black">black hole</text>
<text x="202.51761" y="350.4694" fill="black">physical cosmology</text>
<text x="411.44223" y="423.1384" fill="black">gravitation</text>
<text x="358.27234" y="491.82556" fill="black">spacetime</text>
<text x="173.08339" y="482.8664" fill="black">dark matter</text>
<text x="279.32095" y="527.66235" fill="black">special relativity</text>
<text x="329.1984" y="553.54443" fill="black">quantum gravity</text>
<text x="229.62805" y="537.61694" fill="black">time</text>
<text x="178.40732" y="602.32227" fill="black">big bang</text>
<text x="251.30272" y="600.3314" fill="black">gravitational wave</text>
<text x="301.0405" y="634.17725" fill="black">symmetry</text>
<text x="335.5056" y="624.22253" fill="black">hawking radiation</text>
<text x="325.75372" y="620.2407" fill="black">standard model</text>
<text x="285.66348" y="661.0548" fill="black">neutron star</text>
<text x="200.43811" y="629.1999" fill="black">dark energy</text>
<text x="101.34919" y="626.2135" fill="black">schwarzschild radius</text>
<text x="255.068" y="648.1138" fill="black">cosmological constant</text>
<text x="261.57968" y="677.97766" fill="black">white dwarf</text>
<text x="145.42351" y="687.9324" fill="black">euclidean space</text>
<text x="450.4807" y="673.00037" fill="black">event horizon</text>
<text x="230.72728" y="685.9414" fill="black">supernova</text>
<text x="498.24875" y="651.10016" fill="black">schwarzschild metric</text>
<text x="197.93433" y="710.8281" fill="black">cosmic microwave background radiation</text>
<text x="235.01845" y="679.9687" fill="black">noether's theorem</text>
<text x="388.22098" y="692.90967" fill="black">black hole thermodynamics</text>
<text x="492.80252" y="668.0231" fill="black">black holes</text>
<text x="360.42685" y="694.90063" fill="black">hilbert space</text>
<text x="492.58618" y="696.89154" fill="black">gravitational singularity</text>
<text x="284.5541" y="718.7919" fill="black">de sitter space</text>
<text x="354.25" y="702.8644" fill="black">loop quantum gravity</text>
<text x="438.75955" y="688.92786" fill="black">frame-dragging</text>
<text x="169.26196" y="708.83716" fill="black">hubble's law</text>
<text x="295.35522" y="709.83264" fill="black">cosmology</text>
<text x="99.3119" y="715.8054" fill="black">multiverse</text>
<text x="272.76617" y="713.8145" fill="black">minkowski space</text>
<text x="227.31938" y="729.74194" fill="black">supersymmetry</text>
<text x="270.19318" y="716.8008" fill="black">binary star</text>
<text x="433.18042" y="716.8008" fill="black">kerr metric</text>
<text x="251.21397" y="720.7828" fill="black">vacuum energy</text>
<text x="145.03085" y="717.7963" fill="black">accelerating universe</text>
<text x="260.43747" y="726.75555" fill="black">cosmic inflation</text>
<text x="412.5951" y="730.7374" fill="black">de sitter universe</text>
<text x="191.04424" y="732.72833" fill="black">riemannian manifold</text>
<text x="374.12238" y="726.75555" fill="black">wormhole</text>
<text x="173.91461" y="729.74194" fill="black">lambda-cdm model</text>
<text x="255.57776" y="730.73737" fill="black">pulsar</text>
<text x="160.0693" y="729.7419" fill="black">accretion disc</text>
<text x="352.7893" y="727.75104" fill="black">exotic matter</text>
<text x="262.07626" y="735.7147" fill="black">theory of everything</text>
<text x="377.96716" y="732.72833" fill="black">gravitational constant</text>
<text x="431.46103" y="724.7645" fill="black">equivalence principle</text>
<text x="368.76144" y="733.7238" fill="black">black hole information paradox</text>
<text x="123.47259" y="731.7328" fill="black">closed timelike curve</text>
<text x="365.51862" y="733.7238" fill="black">time travel</text>
<text x="131.86601" y="737.7057" fill="black">m-theory</text>
<text x="125.25152" y="734.71924" fill="black">non-euclidean geometry</text>
<text x="526.44586" y="738.70105" fill="black">knot theory</text>
<text x="449.22806" y="738.70105" fill="black">antimatter</text>
<text x="137.31154" y="738.70105" fill="black">gauge theories</text>
<text x="537.11945" y="738.70105" fill="black">quantum hall effect</text>
</svg>
